<svg xmlns="http://www.w3.org/2000/svg" width="99" height="50" fill="none"><mask id="a" width="52" height="43" x="0" y="7" mask-type="alpha" maskUnits="userSpaceOnUse"><path fill="#fff" d="M.015 8H51.52v41.985H.015V8Z"/></mask><g fill="#16396B" mask="url(#a)"><path d="M15.345 37.024c-2.118-.002-4.112-.343-5.983-1.024-1.878-.683-3.51-1.66-4.894-2.931-1.386-1.27-2.476-2.798-3.273-4.581C.398 26.704 0 24.713 0 22.512c0-2.2.398-4.192 1.195-5.975.797-1.783 1.887-3.31 3.273-4.582 1.384-1.27 3.016-2.248 4.894-2.93 1.871-.681 3.865-1.023 5.983-1.025h.021c2.118.002 4.112.344 5.983 1.024 1.122.408 2.154.923 3.1 1.54-1.816 1.88-3.195 4.294-3.944 7.023-.04-.047-.08-.094-.123-.14-1.193-1.287-2.869-1.933-5.026-1.935h.01-.02.01c-2.158.002-3.834.648-5.027 1.935-1.195 1.29-1.792 2.979-1.792 5.065 0 2.087.597 3.776 1.792 5.065 1.193 1.289 2.869 1.932 5.027 1.935h-.01.02-.01c2.157-.003 3.833-.646 5.026-1.935.07-.075.137-.152.202-.23.796 2.724 2.22 5.121 4.08 6.97A14.963 14.963 0 0 1 21.349 36c-1.871.681-3.865 1.022-5.983 1.024h-.02Z"/><path d="M47.565 45.931c2.636-2.713 3.955-6.687 3.955-11.923V8.683h-7.854v3.642h-.114c-.34-.493-.796-.996-1.365-1.508-.569-.513-1.252-.977-2.05-1.394a12.954 12.954 0 0 0-2.702-1.025C36.429 8.133 35.319 8 34.105 8c-1.973 0-3.737.408-5.293 1.223a12.577 12.577 0 0 0-3.955 3.216c-1.08 1.329-1.916 2.865-2.504 4.61a16.627 16.627 0 0 0-.882 5.35c0 2.086.322 4.002.968 5.748.644 1.745 1.565 3.253 2.76 4.523 1.195 1.272 2.627 2.258 4.297 2.96 1.669.703 3.528 1.053 5.577 1.053 1.29 0 2.665-.276 4.126-.825 1.46-.55 2.684-1.489 3.67-2.817h.115v2.674c0 1.973-.618 3.594-1.85 4.866-1.233 1.271-3.159 1.907-5.776 1.907-1.746 0-3.35-.323-4.81-.968-1.46-.646-2.855-1.518-4.182-2.618l-4.724 7.057c2.01 1.594 4.211 2.666 6.602 3.216 2.39.55 4.818.825 7.284.825 5.387 0 9.4-1.357 12.037-4.069Zm-3.899-23.59a6.66 6.66 0 0 1-1.963 4.752 7.387 7.387 0 0 1-2.19 1.509c-.836.38-1.728.569-2.676.569-.987 0-1.888-.19-2.703-.57a7.5 7.5 0 0 1-2.163-1.508 6.674 6.674 0 0 1-1.963-4.752 6.679 6.679 0 0 1 1.963-4.752 7.511 7.511 0 0 1 2.163-1.508c.815-.379 1.716-.569 2.703-.569a6.4 6.4 0 0 1 2.675.569c.834.38 1.565.882 2.19 1.509a6.665 6.665 0 0 1 1.964 4.752Z"/></g><path fill="#16396B" d="m74.456 8.358-.257-.074a7.387 7.387 0 0 0-1.366-.227A19.639 19.639 0 0 0 71.353 8c-1.898 0-3.471.427-4.724 1.28-1.251.854-2.333 2.134-3.243 3.842h-.114v-4.44h-8.537v27.66h8.537V24.788c0-1.365.075-2.617.227-3.756.152-1.138.484-2.114.996-2.93.512-.816 1.242-1.451 2.191-1.907.45-.216 1.253-.406 1.855-.52 1.204-3.067 3.247-5.612 5.624-7.13"/><path fill="#16396B" d="M98.847 36.342V.176H90.31v11.466h-.114a7.972 7.972 0 0 0-3.784-2.817C84.875 8.275 83.215 8 81.432 8c-1.973 0-3.737.408-5.292 1.223a12.227 12.227 0 0 0-3.956 3.273c-1.081 1.365-1.916 2.93-2.504 4.695a17.401 17.401 0 0 0-.882 5.549c0 2.087.322 4.003.967 5.748s1.566 3.254 2.76 4.524c1.196 1.272 2.627 2.258 4.297 2.96 1.67.701 3.529 1.052 5.578 1.052.947 0 1.868-.133 2.76-.398a11.813 11.813 0 0 0 2.447-1.024c.74-.417 1.385-.882 1.935-1.395A9.466 9.466 0 0 0 90.88 32.7h.113v3.643h7.854Zm-7.854-13.83c0 2.087-.597 3.776-1.792 5.065-1.195 1.29-2.874 1.935-5.037 1.935s-3.842-.644-5.037-1.935c-1.195-1.29-1.792-2.978-1.792-5.065 0-2.086.597-3.775 1.792-5.065 1.195-1.29 2.874-1.935 5.037-1.935s3.842.646 5.037 1.935c1.195 1.29 1.792 2.979 1.792 5.065Z"/></svg>